<svg width="114" height="49" viewBox="0 0 114 49" fill="none" xmlns="http://www.w3.org/2000/svg">
<path d="M34.8155 39.4158C33.4105 39.4158 32.1584 39.172 31.0592 38.6846C29.9601 38.1876 29.0903 37.4564 28.4499 36.491C27.8191 35.5161 27.5037 34.3022 27.5037 32.8494C27.5037 31.626 27.7283 30.5985 28.1775 29.767C28.6267 28.9354 29.2384 28.2664 30.0126 27.7598C30.7868 27.2532 31.6662 26.8709 32.6506 26.6128C33.6447 26.3548 34.6865 26.1732 35.7761 26.068C37.0569 25.9342 38.0891 25.81 38.8729 25.6953C39.6566 25.571 40.2253 25.3894 40.579 25.1505C40.9326 24.9115 41.1095 24.5579 41.1095 24.0895V24.0035C41.1095 23.0955 40.8227 22.393 40.2492 21.896C39.6853 21.399 38.8824 21.1504 37.8406 21.1504C36.7415 21.1504 35.8669 21.3942 35.217 21.8816C34.567 22.3595 34.1369 22.9617 33.9266 23.6881L28.2779 23.2293C28.5646 21.8912 29.1285 20.7347 29.9696 19.7598C30.8107 18.7753 31.8956 18.0202 33.2241 17.4945C34.5622 16.9593 36.1106 16.6916 37.8693 16.6916C39.0927 16.6916 40.2636 16.835 41.3819 17.1218C42.5097 17.4085 43.5085 17.8529 44.3783 18.4551C45.2576 19.0572 45.9506 19.8314 46.4572 20.7777C46.9637 21.7144 47.217 22.8374 47.217 24.1469V39H41.4249V35.9462H41.2528C40.8992 36.6344 40.4261 37.2413 39.8335 37.767C39.2409 38.2832 38.5288 38.6894 37.6973 38.9857C36.8657 39.2724 35.9051 39.4158 34.8155 39.4158ZM36.5646 35.2007C37.4631 35.2007 38.2564 35.0239 38.9446 34.6702C39.6328 34.307 40.1728 33.8196 40.5647 33.2079C40.9565 32.5961 41.1525 31.9032 41.1525 31.129V28.7921C40.9613 28.9163 40.6985 29.031 40.3639 29.1362C40.039 29.2317 39.671 29.3225 39.26 29.4086C38.849 29.485 38.438 29.5567 38.027 29.6236C37.616 29.681 37.2433 29.7335 36.9087 29.7813C36.1919 29.8865 35.5658 30.0537 35.0306 30.2831C34.4953 30.5125 34.0796 30.8231 33.7833 31.215C33.487 31.5973 33.3388 32.0752 33.3388 32.6487C33.3388 33.4803 33.6399 34.1159 34.242 34.5555C34.8538 34.9856 35.628 35.2007 36.5646 35.2007ZM70.2781 23.258L64.6866 23.6021C64.5911 23.1242 64.3856 22.6941 64.0701 22.3117C63.7547 21.9199 63.339 21.6092 62.8228 21.3798C62.3163 21.1409 61.7093 21.0214 61.002 21.0214C60.0558 21.0214 59.2577 21.2221 58.6078 21.6236C57.9578 22.0154 57.6328 22.5411 57.6328 23.2006C57.6328 23.7263 57.8431 24.1708 58.2637 24.534C58.6842 24.8972 59.4058 25.1887 60.4286 25.4085L64.4142 26.2114C66.5552 26.6511 68.1514 27.3584 69.2028 28.3333C70.2542 29.3082 70.7799 30.589 70.7799 32.1756C70.7799 33.6188 70.3545 34.8853 69.5039 35.9749C68.6628 37.0645 67.5062 37.9152 66.0343 38.5269C64.5719 39.129 62.885 39.4301 60.9734 39.4301C58.0582 39.4301 55.7356 38.8232 54.0056 37.6093C52.2851 36.3859 51.2768 34.7228 50.9805 32.62L56.9877 32.3046C57.1693 33.1935 57.6089 33.8721 58.3067 34.3405C59.0044 34.7993 59.8981 35.0287 60.9877 35.0287C62.0582 35.0287 62.9184 34.8232 63.5684 34.4122C64.2279 33.9916 64.5624 33.4516 64.5719 32.7921C64.5624 32.2377 64.3282 31.7837 63.8694 31.4301C63.4106 31.0669 62.7034 30.7897 61.7476 30.5985L57.9339 29.8387C55.7834 29.4086 54.1824 28.663 53.131 27.6021C52.0892 26.5412 51.5683 25.1887 51.5683 23.5447C51.5683 22.1301 51.9506 20.9115 52.7153 19.8888C53.4895 18.8661 54.5743 18.0776 55.9698 17.5232C57.3748 16.9688 59.0188 16.6916 60.9017 16.6916C63.6831 16.6916 65.8718 17.2795 67.468 18.4551C69.0738 19.6307 70.0104 21.2317 70.2781 23.258ZM80.7333 26.2688V39H74.6258V9.63784H80.5613V20.8637H80.8193C81.3164 19.5638 82.1192 18.5459 83.228 17.8099C84.3367 17.0644 85.7274 16.6916 87.4 16.6916C88.9293 16.6916 90.2626 17.0262 91.4 17.6952C92.547 18.3547 93.4359 19.3058 94.0667 20.5483C94.7071 21.7813 95.0225 23.258 95.013 24.9784V39H88.9054V26.068C88.915 24.7108 88.5709 23.6546 87.8731 22.8996C87.185 22.1445 86.2196 21.7669 84.9771 21.7669C84.1455 21.7669 83.4096 21.9438 82.7692 22.2974C82.1383 22.6511 81.6413 23.1672 81.2781 23.8458C80.9245 24.5149 80.7429 25.3225 80.7333 26.2688ZM99.8194 39V16.9784H105.741V20.8207H105.97C106.371 19.4539 107.045 18.4216 107.992 17.7239C108.938 17.0166 110.027 16.663 111.26 16.663C111.566 16.663 111.896 16.6821 112.25 16.7203C112.603 16.7585 112.914 16.8111 113.182 16.878V22.2974C112.895 22.2114 112.498 22.1349 111.992 22.068C111.485 22.0011 111.021 21.9677 110.601 21.9677C109.702 21.9677 108.9 22.1636 108.192 22.5555C107.494 22.9378 106.94 23.473 106.529 24.1612C106.128 24.8494 105.927 25.6427 105.927 26.5412V39H99.8194Z" fill="#5A39B7"/>
<path fill-rule="evenodd" clip-rule="evenodd" d="M24.5137 29.8716C22.6973 33.0661 19.6365 35.4805 18.1528 36.3785C17.0942 36.9857 14.6512 38.309 13.3483 38.7451C12.0455 39.1813 10.0945 39.5612 9.28195 39.6966C11.2683 40.1932 16.4328 40.2112 21.2 36.3108C21.0328 36.7481 20.7531 37.3419 20.3647 38.0039C19.6775 38.6199 18.9136 39.1577 18.0729 39.6172C15.9344 40.7915 13.3757 41.3787 10.397 41.3787H0V18.8881C0 15.1113 3.0617 12.0496 6.8385 12.0496H10.4829C10.6277 12.0496 10.7715 12.051 10.9143 12.0538C9.04092 15.86 6.62933 19.8032 4.01369 23.4669L2.42412 27.8209C4.90553 24.3907 10.4236 16.975 12.6447 14.7539C13.2207 14.1779 13.8076 13.3715 14.3717 12.4389C15.7302 12.7315 16.9735 13.1888 18.1016 13.811C19.8947 14.792 21.3391 16.1353 22.4346 17.8409C21.8695 19.2122 21.2132 20.1551 20.0551 21.819C20.0087 21.8857 19.9615 21.9535 19.9134 22.0226C17.7945 25.0686 10.5668 32.0578 8.09175 33.2555C10.1204 32.3382 14.2533 30.3159 15.7827 28.9974C17.5218 27.4982 22.4471 23.1314 23.7867 20.5997C24.4266 22.3903 24.7465 24.4189 24.7465 26.6855C24.7465 27.8052 24.6689 28.8673 24.5137 29.8716Z" fill="#5A39B7"/>
</svg>
